<?xml version="1.0" encoding="utf-8"?>
<!-- Generator: Adobe Illustrator 18.1.1, SVG Export Plug-In . SVG Version: 6.00 Build 0)  -->
<!DOCTYPE svg PUBLIC "-//W3C//DTD SVG 1.0//EN" "http://www.w3.org/TR/2001/REC-SVG-20010904/DTD/svg10.dtd">
<svg version="1.0" id="Layer_1" xmlns="http://www.w3.org/2000/svg" xmlns:xlink="http://www.w3.org/1999/xlink" x="0px" y="0px"
	 viewBox="0 0 600 600" enable-background="new 0 0 600 600" xml:space="preserve">
<g id="Layer_1_1_">
</g>
<g id="_x31_2_x5F_AddOns">
	<g>
		<path fill="#231F20" d="M25,300c0-64.5,59.9-59.9,84.4-42.8c32,21.7,42.2-10.8,42.2-32c0-21.7-21.1-85.6-32-107.3
			c-10.8-21.7,10.8-30.2,21.1-32c53.6-10.8,85-21.7,106.1-21.7S257.8,86,257.8,86l-10.8,42.8c-10.8,42.8,21.1,64.5,53.1,64.5
			s63.3-21.7,53.1-64.5L342.2,86c0,0-10.8-21.7,10.8-21.7c21.1,0,53.1,10.8,105.5,21.7c10.3,2.3,32,10.8,21.1,32
			c-10.3,21.7-31.4,85.6-31.4,107.3c0,21.1,10.3,53.6,42.2,32c25.1-16.5,84.4-21.7,84.4,42.8s-59.9,59.3-84.4,42.8
			c-32-21.7-42.2,10.8-42.2,32c0,21.7,21.1,85.6,32,107.3c10.8,21.7-10.8,30.2-21.1,32c-53.1,10.8-84.4,21.7-105.5,21.7
			c-21.1,0-10.8-21.7-10.8-21.7l10.8-42.8c10.8-42.8-21.1-64.5-53.1-64.5s-63.3,21.7-53.1,64.5l10.8,42.8c0,0,10.8,21.7-10.8,21.7
			c-21.1,0-53.1-10.8-105.5-21.7c-10.3-2.3-32-10.8-21.1-32c10.8-21.7,32-85.6,32-107.3c0-21.7-10.8-53.6-42.2-32
			C84.9,359.9,25,364.5,25,300"/>
	</g>
</g>
<g id="Layer_1_2_">
</g>
</svg>
