<?xml version="1.0" encoding="utf-8"?>
<!-- Generator: Adobe Illustrator 18.1.1, SVG Export Plug-In . SVG Version: 6.00 Build 0)  -->
<!DOCTYPE svg PUBLIC "-//W3C//DTD SVG 1.1//EN" "http://www.w3.org/Graphics/SVG/1.1/DTD/svg11.dtd">
<svg version="1.1" id="Layer_1" xmlns="http://www.w3.org/2000/svg" xmlns:xlink="http://www.w3.org/1999/xlink" x="0px" y="0px"
	 viewBox="0 0 600 600" enable-background="new 0 0 600 600" xml:space="preserve">
<g>
	<path d="M573.1,574.6c0.4,0,1.5,0,1.9,0c-0.2,0-0.4,0-0.9,0C573.6,574.6,573.2,574.6,573.1,574.6z"/>
	<path d="M574.1,65.6c0-25.5-14.8-40.2-40.1-40.2c-133.5,0-448.3-0.1-472.1,0c-17.4,0.1-31.1,10.9-35.6,27.6c-0.3,1.1-0.9,2-1.3,3
		c0,172.8,0,345.7,0,518.5c1.7-0.1,549.1,0,549.1,0S574.1,172.2,574.1,65.6z M61.9,538c0-134.7,0-268.7,0-402.6
		c158.8,0,317.2,0,476.1,0c0,84.9,0,316.2,0,402.6C423.9,538,93.1,538,61.9,538z"/>
</g>
<path d="M317.4,376.5c0-54.5,3.5-108.2,3.5-162.1c-14.3,0-28.2,0-42,0c0,54.3,3.5,108.2,3.5,162.1
	C296.8,376.5,303.4,376.5,317.4,376.5z"/>
<path d="M321,452.6c0-14.3,0-28.5,0-42.6c-14.3,0-28.2,0-42,0c0,14.3,0,28.5,0,42.6C293.3,452.6,307,452.6,321,452.6z"/>
</svg>
