<?xml version="1.0" encoding="utf-8"?>
<!-- Generator: Adobe Illustrator 18.1.1, SVG Export Plug-In . SVG Version: 6.00 Build 0)  -->
<svg version="1.1" id="Layer_1" xmlns="http://www.w3.org/2000/svg" xmlns:xlink="http://www.w3.org/1999/xlink" x="0px" y="0px"
	 viewBox="0 0 600 600" enable-background="new 0 0 600 600" xml:space="preserve">
<g>
	<g>
		<path fill="#0D0F0F" d="M332.5,333.9c-14.2,0-153.3-0.4-153.3-0.4l0.4-88.1L25,389.3l154.2,141.6l1.1-87.9
			c0,0,110.8-0.2,153.7-0.2c14.2,0,20.4-8.5,20.4-20.8c0-7.6,0.4-53.3,0.4-66.5C355,342.6,346.7,333.9,332.5,333.9z M421.5,69.1
			l0.4,88.8c0,0-140.6,0.6-154.8,0.6c-14.2,0-22.1,8.5-22.1,21.7s1.1,58,1.1,65.6c0,12.3,5.7,21.7,20,21.7
			c42.9,0,155.4-0.2,155.4-0.2l0.8,87.5L575,214.1L421.5,69.1z"/>
	</g>
</g>
</svg>
