<?xml version="1.0" encoding="utf-8"?>
<!-- Generator: Adobe Illustrator 18.1.1, SVG Export Plug-In . SVG Version: 6.00 Build 0)  -->
<!DOCTYPE svg PUBLIC "-//W3C//DTD SVG 1.0//EN" "http://www.w3.org/TR/2001/REC-SVG-20010904/DTD/svg10.dtd">
<svg version="1.0" id="Layer_1" xmlns="http://www.w3.org/2000/svg" xmlns:xlink="http://www.w3.org/1999/xlink" x="0px" y="0px"
	 viewBox="0 0 600 600" enable-background="new 0 0 600 600" xml:space="preserve">
<g id="_x34_3_x5F_Attachment">
	<g>
		<path fill="#231F20" d="M300,575c-35.6,0-68.8-11.5-93.5-32.7c-28.7-24.7-43.6-59.1-43.6-99.8V128.8C162.9,60.6,212.3,25,261,25
			s98.1,35.6,98.1,103.8v268.4c0,22.4-9.7,36.1-18.4,43.6c-10.3,9.2-24.1,14.3-39,14.3c-29.2,0-60.2-20.1-60.2-57.4V181.6h39v215.6
			c0,18.4,20.1,18.4,20.6,18.4c5.2,0,9.7-1.7,13.2-4.6c3.4-2.9,5.2-7.5,5.2-13.8V128.8c0-44.7-29.2-64.8-58.5-64.8
			s-59.1,20.1-59.1,64.8v313.7c0,63.7,51,92.9,98.1,92.9s98.1-28.7,98.1-92.9V128.8h39v313.7C437.6,529.1,368.2,575,300,575"/>
	</g>
</g>
<g id="Layer_1_1_">
</g>
</svg>
