<?xml version="1.0" encoding="utf-8"?>
<!-- Generator: Adobe Illustrator 18.1.1, SVG Export Plug-In . SVG Version: 6.00 Build 0)  -->
<svg version="1.1" id="Layer_1" xmlns="http://www.w3.org/2000/svg" xmlns:xlink="http://www.w3.org/1999/xlink" x="0px" y="0px"
	 viewBox="0 0 600 600" enable-background="new 0 0 600 600" xml:space="preserve">
<g id="wheel">
	<path id="gear-icon" fill="#0D0F0F" d="M575,337v-74.1l-40-14.2c-15.2-5.4-27.5-17.1-33.8-32v0c-6.2-15-5.8-31.9,1.2-46.6
		l18.2-38.3l-52.4-52.4l-38.3,18.2c-14.7,7-31.6,7.4-46.6,1.2l0,0c-15-6.2-26.7-18.5-32.1-33.8l-14.2-40H263l-14.2,40
		c-5.4,15.2-17.1,27.6-32.1,33.8l0,0c-15,6.2-31.9,5.8-46.6-1.2l-38.4-18.2l-52.3,52.4L97.6,170c7,14.7,7.4,31.6,1.2,46.6v0
		c-6.2,14.9-18.5,26.6-33.8,32l-40,14.2V337l40,14.2c15.3,5.4,27.6,17.1,33.8,32c0,0,0,0,0,0c6.2,15,5.8,31.9-1.2,46.6l-18.2,38.4
		l52.4,52.4l38.4-18.3c14.7-6.9,31.6-7.4,46.6-1.2l0,0c15,6.2,26.6,18.5,32.1,33.8L263,575h74.1l14.1-39.8
		c5.5-15.4,17.2-27.8,32.3-34.1c0,0,0,0,0,0c14.8-6.2,31.6-5.8,46.1,1.1l38.6,18.3l52.4-52.4l-18.2-38.4
		c-6.9-14.7-7.4-31.6-1.2-46.6l0,0c6.3-15,18.5-26.7,33.8-32.1L575,337z M300,411.5c-61.6,0-111.5-49.9-111.5-111.5
		c0-61.6,49.9-111.6,111.5-111.6c61.6,0,111.6,50,111.6,111.6C411.5,361.6,361.6,411.5,300,411.5z"/>
</g>
<g id="Layer_1_1_">
</g>
</svg>
