<?xml version="1.0" encoding="utf-8"?>
<!-- Generator: Adobe Illustrator 18.1.1, SVG Export Plug-In . SVG Version: 6.00 Build 0)  -->
<svg version="1.1" id="Layer_1" xmlns="http://www.w3.org/2000/svg" xmlns:xlink="http://www.w3.org/1999/xlink" x="0px" y="0px"
	 viewBox="0 0 600 600" enable-background="new 0 0 600 600" xml:space="preserve">
<g>
	<path fill="#0D0F0F" d="M161.6,57.8C79.1,57.8,25,89.5,25,171v190.7c0,81.5,54.1,112,136.6,112c81.9,0,132.8-31.1,132.8-112V171
		C294.6,89.5,243.6,57.8,161.6,57.8z M239.9,356.2c0,50.2-24,68.3-78.3,68.3c-55.3,0-81.9-18.1-81.9-68.3V176.3
		c0-50.8,26.8-69.5,81.9-69.5c54.1,0,78.3,18.5,78.3,69.5V356.2z"/>
	<path fill="#0D0F0F" d="M410.9,403.2c-9.4,0-25.2,0-25.2,4.5c0,66.7-2.6,83.2-30.7,110.4c-3.9,3.3-1,9.8,6.1,16.5
		c6.5,7.1,11,8.7,14.8,7.1c33.3-22,61.8-61.2,61.8-134C437.8,403.2,420.9,403.2,410.9,403.2z"/>
	<path fill="#0D0F0F" d="M569.9,280.6H363.5c-5.1,0-5.1,14-5.1,25.6c0,11,0,25.6,5.1,25.6h206.4c5.1,0,5.1-14.8,5.1-25.6
		C575,294.6,575,280.6,569.9,280.6z"/>
</g>
</svg>
